# xmcd
#
# Track frame offsets:
#	150
#	15473
#	37138
#	56133
#	74448
#	89616
#	109149
#	122107
#	144202
#	163121
#	187179
#
# Disc length: 2802 seconds
#
# Revision: 0
# Processed by: cddbd v1.5.2PL0 Copyright (c) Steve Scherf et al.
# Submitted via: EZCDAudioConverter 6.0.8.1
#
DISCID=a20af00b
DTITLE=Difusion Prohibida - Micromundo
DYEAR=2017
DGENRE=pop
TTITLE0=Buscando una quimera
TTITLE1=Noche blanca
TTITLE2=No te quedes mas
TTITLE3=Jugando en la noche
TTITLE4=Inmigrante
TTITLE5=Criatura de metal
TTITLE6=Out of my life
TTITLE7=Nueva realidad
TTITLE8=Sola en el mar
TTITLE9=Otoños negros
TTITLE10=Mitomana
EXTD=
EXTT0=
EXTT1=
EXTT2=
EXTT3=
EXTT4=
EXTT5=
EXTT6=
EXTT7=
EXTT8=
EXTT9=
EXTT10=
PLAYORDER=
